<?xml version="1.0" encoding="UTF-8" standalone="no"?>
<svg
   viewBox="0,0,256,256"
   width="48px"
   height="48px"
   version="1.1"
   id="svg2"
   sodipodi:docname="icons8-twitterx-48.svg"
   inkscape:version="1.3 (0e150ed, 2023-07-21)"
   xmlns:inkscape="http://www.inkscape.org/namespaces/inkscape"
   xmlns:sodipodi="http://sodipodi.sourceforge.net/DTD/sodipodi-0.dtd"
   xmlns="http://www.w3.org/2000/svg"
   xmlns:svg="http://www.w3.org/2000/svg">
  <defs
     id="defs2" />
  <sodipodi:namedview
     id="namedview2"
     pagecolor="#ffffff"
     bordercolor="#000000"
     borderopacity="0.25"
     inkscape:showpageshadow="2"
     inkscape:pageopacity="0.0"
     inkscape:pagecheckerboard="0"
     inkscape:deskcolor="#d1d1d1"
     inkscape:zoom="4.9166667"
     inkscape:cx="24"
     inkscape:cy="24"
     inkscape:window-width="1312"
     inkscape:window-height="449"
     inkscape:window-x="44"
     inkscape:window-y="237"
     inkscape:window-maximized="0"
     inkscape:current-layer="svg2" />
  <path
     d="M 64,32 C 46.325398,32 32,46.325398 32,64 v 128 c 0,17.6746 14.325398,32 32,32 h 128 c 17.6746,0 32,-14.3254 32,-32 V 64 C 224,46.325398 209.6746,32 192,32 Z m 11.875,30.822917 c 1.100562,0 2.151616,0.08305 3.145833,0.239583 0.994217,0.15653 1.932021,0.388592 2.8125,0.6875 0.88048,0.298908 1.698985,0.666616 2.458334,1.09375 0.759349,0.427134 1.462924,0.906707 2.09375,1.447917 0.630825,0.541209 1.192591,1.140117 1.6875,1.78125 0.494908,0.641132 0.919234,1.325179 1.270833,2.052083 0.351599,0.726904 0.632437,1.493142 0.833333,2.291667 0.200897,0.798524 0.321783,1.63359 0.364584,2.489583 0,0.855992 -0.08245,1.693501 -0.25,2.5 -0.167555,0.806499 -0.421712,1.582341 -0.75,2.322917 -0.328289,0.740576 -0.736548,1.445944 -1.21875,2.104166 -0.482203,0.658223 -1.03737,1.273895 -1.666667,1.833334 -0.629297,0.559438 -1.334595,1.055775 -2.104167,1.5 -0.769571,0.444224 -1.607391,0.833253 -2.510416,1.145833 -0.903026,0.31258 -1.866173,0.554245 -2.895834,0.71875 -1.02966,0.164505 -2.121358,0.25 -3.270833,0.25 -1.100562,0 -2.153054,-0.08549 -3.15625,-0.25 -1.003196,-0.164505 -1.959824,-0.40617 -2.854167,-0.71875 -0.894343,-0.31258 -1.725997,-0.701609 -2.5,-1.145833 -0.774003,-0.444225 -1.482823,-0.940562 -2.125,-1.5 -0.642176,-0.559439 -1.219887,-1.175111 -1.71875,-1.833334 -0.498862,-0.658222 -0.926771,-1.36359 -1.270833,-2.104166 -0.344062,-0.740576 -0.603475,-1.516418 -0.78125,-2.322917 -0.177775,-0.806499 -0.270833,-1.644008 -0.270833,-2.5 0,-1.711986 0.363959,-3.327441 1.052083,-4.78125 0.344062,-0.726904 0.771971,-1.410951 1.270833,-2.052083 0.498863,-0.641133 1.076574,-1.240041 1.71875,-1.78125 0.642177,-0.54121 1.350997,-1.020783 2.125,-1.447917 0.774003,-0.427134 1.605657,-0.794842 2.5,-1.09375 0.894343,-0.298908 1.850971,-0.53097 2.854167,-0.6875 1.003196,-0.15653 2.055688,-0.239583 3.15625,-0.239583 z M 61.197917,101.95833 h 29.34375 v 92.9375 h -29.34375 z m 44.020833,0 h 29.35417 v 12.52084 c 0,0 0.58947,-0.78451 1.77083,-1.95834 0.59068,-0.58691 1.33213,-1.26635 2.21875,-2 0.88662,-0.73364 1.92121,-1.51953 3.10417,-2.30208 4.73183,-3.13021 11.83363,-6.26042 21.32291,-6.26042 8.49573,0 16.28547,2.55889 22.36459,7.69792 0.86844,0.73415 1.70446,1.51444 2.5,2.35417 0.79554,0.83972 1.55409,1.73161 2.27083,2.67708 0.71674,0.94547 1.3888,1.94861 2.02083,3 0.63204,1.05139 1.21898,2.15501 1.76042,3.3125 0.54144,1.15749 1.04464,2.37166 1.48958,3.63542 0.44495,1.26376 0.83453,2.57771 1.17709,3.94791 0.34255,1.37021 0.63031,2.79401 0.86458,4.27084 0.46853,2.95365 0.71875,6.11883 0.71875,9.5 v 52.54166 H 168.8125 v -48.91666 c 0,-1.22285 -0.0714,-2.44174 -0.22917,-3.64584 -0.15777,-1.2041 -0.4041,-2.39375 -0.72916,-3.54166 -1.95036,-6.88746 -6.99531,-12.42618 -16.16667,-12.57292 h -0.38542 c -8.87786,0 -13.8505,5.66378 -15.78125,12.58333 -0.32179,1.15326 -0.56186,2.34971 -0.71875,3.55209 -0.15688,1.20238 -0.22916,2.41438 -0.22916,3.625 v 48.91666 h -29.35417 z"
     style="fill:#ffffff"
     id="path5" />
</svg>
