<?xml version="1.0" encoding="UTF-8" standalone="no"?>
<svg
   viewBox="0,0,256,256"
   width="24px"
   height="24px"
   version="1.1"
   id="svg2"
   sodipodi:docname="icons8-twitterx-24.svg"
   inkscape:version="1.3 (0e150ed, 2023-07-21)"
   xmlns:inkscape="http://www.inkscape.org/namespaces/inkscape"
   xmlns:sodipodi="http://sodipodi.sourceforge.net/DTD/sodipodi-0.dtd"
   xmlns="http://www.w3.org/2000/svg"
   xmlns:svg="http://www.w3.org/2000/svg">
  <defs
     id="defs2" />
  <sodipodi:namedview
     id="namedview2"
     pagecolor="#ffffff"
     bordercolor="#000000"
     borderopacity="0.25"
     inkscape:showpageshadow="2"
     inkscape:pageopacity="0.0"
     inkscape:pagecheckerboard="0"
     inkscape:deskcolor="#d1d1d1"
     inkscape:zoom="9.8333333"
     inkscape:cx="12"
     inkscape:cy="12.305085"
     inkscape:window-width="1312"
     inkscape:window-height="449"
     inkscape:window-x="0"
     inkscape:window-y="25"
     inkscape:window-maximized="0"
     inkscape:current-layer="svg2" />
  <path
     d="M 64,32 C 46.325363,32 32,46.325363 32,64 v 128 c 0,17.67464 14.325363,32 32,32 h 128 c 17.67464,0 32,-14.32536 32,-32 V 64 C 224,46.325363 209.67464,32 192,32 Z m 10.4375,26.583333 c 9.088602,0 14.813219,5.389421 15.166667,12.458334 0,7.068913 -5.674129,12.770833 -15.166667,12.770833 -9.088602,0 -15.145833,-5.70192 -15.145833,-12.770833 0,-7.068913 6.057231,-12.458334 15.145833,-12.458334 z M 59.291667,98.979167 h 30.3125 v 95.916663 h -30.3125 z m 45.458333,0 h 30.29167 v 12.916663 c 0,0 9.74234,-12.916663 29.33333,-12.916663 20.04541,0 36.3125,13.765293 36.3125,41.687503 v 54.22916 H 170.375 v -50.47916 c 0,-10.09844 -5.04361,-20.19387 -17.66667,-20.39584 h -0.39583 c -12.21912,0 -17.27083,10.39838 -17.27083,20.39584 v 50.47916 H 104.75 Z"
     style="fill:#ffffff"
     id="path3" />
</svg>
