<?xml version="1.0" encoding="UTF-8" standalone="no"?>
<svg
   viewBox="0,0,256,256"
   width="48px"
   height="48px"
   version="1.1"
   id="svg2"
   sodipodi:docname="icons8-instagram-48.svg"
   inkscape:version="1.3 (0e150ed, 2023-07-21)"
   xmlns:inkscape="http://www.inkscape.org/namespaces/inkscape"
   xmlns:sodipodi="http://sodipodi.sourceforge.net/DTD/sodipodi-0.dtd"
   xmlns="http://www.w3.org/2000/svg"
   xmlns:svg="http://www.w3.org/2000/svg">
  <defs
     id="defs2" />
  <sodipodi:namedview
     id="namedview2"
     pagecolor="#ffffff"
     bordercolor="#000000"
     borderopacity="0.25"
     inkscape:showpageshadow="2"
     inkscape:pageopacity="0.0"
     inkscape:pagecheckerboard="0"
     inkscape:deskcolor="#d1d1d1"
     inkscape:zoom="4.9166667"
     inkscape:cx="23.898305"
     inkscape:cy="24"
     inkscape:window-width="1312"
     inkscape:window-height="449"
     inkscape:window-x="12"
     inkscape:window-y="166"
     inkscape:window-maximized="0"
     inkscape:current-layer="svg2" />
  <path
     d="M 64,32 C 46.325363,32 32,46.325363 32,64 v 128 c 0,17.67464 14.325363,32 32,32 h 128 c 17.67464,0 32,-14.32536 32,-32 V 64 C 224,46.325363 209.67464,32 192,32 Z m 128,21.333333 c 5.88799,0 10.66667,4.778677 10.66667,10.666667 0,5.88799 -4.77868,10.666667 -10.66667,10.666667 -5.88799,0 -10.66667,-4.778677 -10.66667,-10.666667 0,-5.88799 4.77868,-10.666667 10.66667,-10.666667 z m -64,21.333334 c 29.45062,0 53.33333,23.882716 53.33333,53.333333 0,29.45062 -23.88271,53.33333 -53.33333,53.33333 C 98.549383,181.33333 74.666667,157.45062 74.666667,128 74.666667,98.549383 98.549383,74.666667 128,74.666667 Z M 128,96 c -17.67304,0 -32,14.32696 -32,32 0,17.67304 14.32696,32 32,32 17.67304,0 32,-14.32696 32,-32 0,-17.67304 -14.32696,-32 -32,-32 z"
     style="fill:#ffffff"
     id="path3" />
</svg>
