<?xml version="1.0" encoding="UTF-8" standalone="no"?>
<!-- Scroll Down icon by Arthur Shlain from Usefulicons.com -->

<svg
   xml:space="preserve"
   version="1.1"
   x="0px"
   y="0px"
   viewBox="0 0 250 100"
   width="1000"
   height="400"
   id="svg2"
   sodipodi:docname="scroll-down.svg"
   inkscape:version="1.3 (0e150ed, 2023-07-21)"
   xmlns:inkscape="http://www.inkscape.org/namespaces/inkscape"
   xmlns:sodipodi="http://sodipodi.sourceforge.net/DTD/sodipodi-0.dtd"
   xmlns="http://www.w3.org/2000/svg"
   xmlns:svg="http://www.w3.org/2000/svg"><defs
     id="defs2" /><sodipodi:namedview
     id="namedview2"
     pagecolor="#ffffff"
     bordercolor="#000000"
     borderopacity="0.25"
     inkscape:showpageshadow="2"
     inkscape:pageopacity="0.0"
     inkscape:pagecheckerboard="0"
     inkscape:deskcolor="#d1d1d1"
     inkscape:zoom="0.59"
     inkscape:cx="428.81356"
     inkscape:cy="213.55932"
     inkscape:window-width="1312"
     inkscape:window-height="449"
     inkscape:window-x="0"
     inkscape:window-y="25"
     inkscape:window-maximized="0"
     inkscape:current-layer="svg2" /><path
     d="m 125.80508,66.083644 v -36.465 h -5 v 36.465 l -10.732,-10.733 -3.536,3.536 16.768,16.767 16.768,-16.767 -3.536,-3.536 z"
     stroke="none"
     id="path1" /><path
     d="m 123.30508,7.1186441 v 0 c -17.949,0 -32.499995,14.5509999 -32.499995,32.4999999 v 23.75 c 0,17.949 14.550995,32.5 32.499995,32.5 v 0 c 17.949,0 32.5,-14.551 32.5,-32.5 v -23.75 c 0,-17.949 -14.551,-32.4999999 -32.5,-32.4999999 z m 25,56.2499999 c 0,13.785 -11.215,25 -25,25 -13.785,0 -24.999995,-11.215 -24.999995,-25 v -23.75 c 0,-13.785 11.214995,-25 24.999995,-25 13.785,0 25,11.215 25,25 z"
     stroke="none"
     id="path2" /><path
     style="font-weight:bold;font-size:22.2121px;font-family:'.Damascus PUA';-inkscape-font-specification:'.Damascus PUA Bold';stroke-width:1.85101"
     d="m 12.06131,52.661978 q 0,2.147459 -1.550942,3.383875 -1.5400971,1.236415 -4.294918,1.236415 -2.5379059,0 -4.4901411,-0.954426 v -3.123576 q 1.6051712,0.715819 2.7114378,1.008655 1.1171124,0.292835 2.0390013,0.292835 1.1062667,0 1.6919373,-0.422984 0.5965163,-0.422985 0.5965163,-1.258107 0,-0.466368 -0.260298,-0.824278 Q 8.2436055,51.631632 7.7338552,51.295414 7.2349506,50.959195 5.6840082,50.221684 4.2306775,49.538402 3.5040121,48.909348 2.7773468,48.280295 2.3435167,47.445172 1.9096866,46.610049 1.9096866,45.492937 q 0,-2.104076 1.4207935,-3.307955 1.4316392,-1.203878 3.9478535,-1.203878 1.2364157,0 2.3535281,0.292835 1.1279583,0.292835 2.3535283,0.824277 l -1.084575,2.613826 Q 9.6318617,44.191446 8.7967388,43.985377 7.9724617,43.779308 7.1698761,43.779308 q -0.9544261,0 -1.4641764,0.444676 -0.5097504,0.444675 -0.5097504,1.160495 0,0.444676 0.2060693,0.780894 0.2060693,0.325373 0.6507451,0.639899 0.4555216,0.303682 2.1366131,1.106267 2.2233792,1.062884 3.0476562,2.136613 0.824277,1.062884 0.824277,2.613826 z m 9.609336,-8.88267 q -1.898006,0 -2.939199,1.431639 -1.041192,1.420793 -1.041192,3.969545 0,5.303573 3.980391,5.303573 1.670246,0 4.045465,-0.835123 v 2.819895 q -1.952235,0.813431 -4.359992,0.813431 -3.459795,0 -5.292727,-2.09323 -1.832932,-2.104075 -1.832932,-6.030237 0,-2.472832 0.900198,-4.327455 0.900197,-1.86547 2.581289,-2.852433 1.691937,-0.997809 3.958699,-0.997809 2.310145,0 4.641982,1.117112 l -1.084575,2.73313 q -0.889352,-0.422985 -1.789549,-0.737511 -0.900198,-0.314527 -1.767858,-0.314527 z m 10.780678,4.468449 h 1.084575 q 1.594325,0 2.353528,-0.531441 0.759203,-0.531442 0.759203,-1.670246 0,-1.127958 -0.780894,-1.605171 -0.770049,-0.477213 -2.396912,-0.477213 h -1.0195 z m 0,2.73313 v 6.084466 H 29.089141 V 41.208865 h 4.62029 q 3.232034,0 4.782976,1.182187 1.550943,1.171341 1.550943,3.568252 0,1.399102 -0.770048,2.494523 -0.770049,1.084575 -2.179997,1.702783 l 4.663674,6.908743 H 38.02604 l -3.785167,-6.084466 z m 25.693585,-1.865469 q 0,3.937007 -1.952235,6.051929 -1.952235,2.114921 -5.596408,2.114921 -3.644172,0 -5.596408,-2.114921 -1.952235,-2.114922 -1.952235,-6.073621 0,-3.958699 1.952235,-6.041084 1.963081,-2.09323 5.6181,-2.09323 3.655018,0 5.585562,2.104076 1.941389,2.104076 1.941389,6.05193 z m -11.572417,0 q 0,2.657209 1.008655,4.002082 1.008655,1.344873 3.015119,1.344873 4.023774,0 4.023774,-5.346955 0,-5.357802 -4.002082,-5.357802 -2.006464,0 -3.025965,1.355719 -1.019501,1.344873 -1.019501,4.002083 z M 61.43117,57.065353 V 41.208865 h 3.362183 v 13.079976 h 6.431531 v 2.776512 z m 12.548539,0 V 41.208865 h 3.362183 v 13.079976 h 6.43153 v 2.776512 z"
     id="text2"
     aria-label="SCROLL" /><path
     style="font-weight:bold;font-size:22.2121px;font-family:'.Damascus PUA';-inkscape-font-specification:'.Damascus PUA Bold';stroke-width:1.85101"
     d="m 175.71252,47.775857 q 0,3.915316 -2.23423,5.9977 -2.22337,2.082385 -6.43153,2.082385 h -4.49014 V 39.999453 h 4.9782 q 3.88278,0 6.03024,2.049847 2.14746,2.049847 2.14746,5.726557 z m -3.49233,0.08677 q 0,-5.108349 -4.51184,-5.108349 h -1.78954 v 10.325155 h 1.44248 q 4.8589,0 4.8589,-5.216806 z m 21.1709,0.04338 q 0,3.937008 -1.95223,6.051929 -1.95224,2.114922 -5.59641,2.114922 -3.64417,0 -5.59641,-2.114922 -1.95223,-2.114921 -1.95223,-6.073621 0,-3.958699 1.95223,-6.041083 1.96309,-2.09323 5.6181,-2.09323 3.65502,0 5.58557,2.104076 1.94138,2.104075 1.94138,6.051929 z m -11.57241,0 q 0,2.657209 1.00865,4.002082 1.00866,1.344873 3.01512,1.344873 4.02378,0 4.02378,-5.346955 0,-5.357801 -4.00209,-5.357801 -2.00646,0 -3.02596,1.355719 -1.0195,1.344873 -1.0195,4.002082 z m 30.19457,7.949936 h -3.82855 l -2.14746,-8.329537 q -0.1193,-0.444676 -0.41214,-1.832932 -0.28199,-1.399102 -0.32537,-1.876315 -0.0651,0.58567 -0.32537,1.88716 -0.2603,1.290645 -0.4013,1.843778 l -2.13661,8.307846 h -3.8177 l -4.04547,-15.856489 h 3.30795 l 2.02816,8.65491 q 0.53144,2.396911 0.77005,4.153923 0.0651,-0.618208 0.29283,-1.908853 0.23861,-1.30149 0.44468,-2.017309 l 2.31014,-8.882671 h 3.17781 l 2.31014,8.882671 q 0.15185,0.596516 0.37961,1.822086 0.22776,1.22557 0.34706,2.104076 0.10846,-0.845969 0.34706,-2.104076 0.23861,-1.268953 0.43383,-2.049847 l 2.01731,-8.65491 h 3.30796 z m 20.09718,0 h -4.27323 l -6.8979,-11.995401 h -0.0976 q 0.20607,3.177805 0.20607,4.533524 v 7.461877 h -3.00427 v -15.85649 h 4.24069 l 6.88705,11.876098 h 0.0759 q -0.16269,-3.091039 -0.16269,-4.370838 v -7.50526 h 3.02597 z"
     id="text2-0"
     aria-label="DOWN" /></svg>
